<mxfile host="Electron" agent="Mozilla/5.0 (Windows NT 10.0; Win64; x64) AppleWebKit/537.36 (KHTML, like Gecko) draw.io/24.7.17 Chrome/128.0.6613.36 Electron/32.0.1 Safari/537.36" version="24.7.17">
  <diagram name="паге 1" id="140547733251152">
    <mxGraphModel dx="3187" dy="1858" grid="1" gridSize="10" guides="1" tooltips="1" connect="1" arrows="1" fold="1" page="1" pageScale="1" pageWidth="850" pageHeight="1100" math="0" shadow="0">
      <root>
        <mxCell id="0" />
        <mxCell id="1" parent="0" />
        <mxCell id="140547733253120" value="Начало" style="ellipse;whiteSpace=wrap;rounded=0;dashed=0;inherit=default;" parent="1" vertex="1">
          <mxGeometry x="140" y="20" width="200" height="40" as="geometry" />
        </mxCell>
        <mxCell id="tlzbJfBs9KNg58y04bb_-140547733272482" style="edgeStyle=orthogonalEdgeStyle;rounded=0;orthogonalLoop=1;jettySize=auto;html=1;entryX=0.5;entryY=1;entryDx=0;entryDy=0;" parent="1" source="140547733253264" target="140547733248464" edge="1">
          <mxGeometry relative="1" as="geometry" />
        </mxCell>
        <mxCell id="140547733253264" value="number := -1&#xa;max_divisor := -1&#xa;choice := 0&#xa;i := 0&#xa;count := 0" style="whiteSpace=wrap;rounded=0;dashed=0;inherit=default;" parent="1" vertex="1">
          <mxGeometry x="140" y="100" width="200" height="100" as="geometry" />
        </mxCell>
        <mxCell id="140547733248464" value="Цикл 1&#xa;choice = 4" style="whiteSpace=wrap;rounded=0;dashed=0;verticalLabelPosition=bottom;verticalAlign=top;shape=offPageConnector;size=0.5;direction=west;spacingTop=-50.05;" parent="1" vertex="1">
          <mxGeometry x="140" y="240" width="200" height="70" as="geometry" />
        </mxCell>
        <mxCell id="tlzbJfBs9KNg58y04bb_-140547733272480" style="edgeStyle=orthogonalEdgeStyle;rounded=0;orthogonalLoop=1;jettySize=auto;html=1;" parent="1" source="140547733251632" target="140547733259040" edge="1">
          <mxGeometry relative="1" as="geometry" />
        </mxCell>
        <mxCell id="140547733251632" value="Вывод&#xa;&quot;Меню:&#xa;1 - Ввести число&#xa;2 - Ввести максимальный делитель&#xa;3 - Подсчитать делители4 - Выход&quot;&#xa;" style="whiteSpace=wrap;rounded=0;dashed=0;inherit=default;shape=parallelogram;perimeter=rectanglePerimeter;fixedSize=1;spacingLeft=15;spacingRight=15;" parent="1" vertex="1">
          <mxGeometry x="140" y="330" width="200" height="150" as="geometry" />
        </mxCell>
        <mxCell id="tlzbJfBs9KNg58y04bb_-140547733272481" style="edgeStyle=orthogonalEdgeStyle;rounded=0;orthogonalLoop=1;jettySize=auto;html=1;entryX=0.5;entryY=0;entryDx=0;entryDy=0;" parent="1" source="140547733259040" target="140547733262064" edge="1">
          <mxGeometry relative="1" as="geometry" />
        </mxCell>
        <mxCell id="140547733259040" value="Ввод choice" style="whiteSpace=wrap;rounded=0;dashed=0;inherit=default;shape=parallelogram;perimeter=rectanglePerimeter;fixedSize=1;spacingLeft=15;spacingRight=15;" parent="1" vertex="1">
          <mxGeometry x="140" y="510" width="200" height="40" as="geometry" />
        </mxCell>
        <mxCell id="T17hy9aiYWxmpJPHIyj9-140547733272491" style="edgeStyle=orthogonalEdgeStyle;rounded=0;orthogonalLoop=1;jettySize=auto;html=1;" parent="1" source="140547733262064" target="T17hy9aiYWxmpJPHIyj9-140547733272480" edge="1">
          <mxGeometry relative="1" as="geometry" />
        </mxCell>
        <mxCell id="140547733262064" value="choice = 1" style="rhombus;whiteSpace=wrap;rounded=0;dashed=0;inherit=default;" parent="1" vertex="1">
          <mxGeometry x="140" y="600" width="200" height="80" as="geometry" />
        </mxCell>
        <mxCell id="140547733260432" value="choice равно 2" style="rhombus;whiteSpace=wrap;rounded=0;dashed=0;inherit=default;" parent="1" vertex="1">
          <mxGeometry x="380" y="700" width="200" height="80" as="geometry" />
        </mxCell>
        <mxCell id="140547733261680" value="choice равно 3" style="rhombus;whiteSpace=wrap;rounded=0;dashed=0;inherit=default;" parent="1" vertex="1">
          <mxGeometry x="620" y="800" width="200" height="80" as="geometry" />
        </mxCell>
        <mxCell id="140547733263360" value="choice равно 4" style="rhombus;whiteSpace=wrap;rounded=0;dashed=0;inherit=default;" parent="1" vertex="1">
          <mxGeometry x="860" y="900" width="200" height="80" as="geometry" />
        </mxCell>
        <mxCell id="6oQD1y4ohWC1IZRHn7C7-140547733272542" style="edgeStyle=orthogonalEdgeStyle;rounded=0;orthogonalLoop=1;jettySize=auto;html=1;" edge="1" parent="1" source="140547733265136">
          <mxGeometry relative="1" as="geometry">
            <mxPoint x="960" y="2000" as="targetPoint" />
            <Array as="points">
              <mxPoint x="1200" y="2000" />
            </Array>
          </mxGeometry>
        </mxCell>
        <mxCell id="140547733265136" value="Вывод &quot;Ошибка: выберите корректный пункт меню&quot;" style="whiteSpace=wrap;rounded=0;dashed=0;inherit=default;shape=parallelogram;perimeter=rectanglePerimeter;fixedSize=1;spacingLeft=15;spacingRight=15;" parent="1" vertex="1">
          <mxGeometry x="1100" y="1020" width="200" height="55" as="geometry" />
        </mxCell>
        <mxCell id="140547733258704" value="Цикл 1" style="whiteSpace=wrap;rounded=0;dashed=0;verticalLabelPosition=bottom;verticalAlign=top;shape=offPageConnector;size=0.5;spacingTop=-52.0;" parent="1" vertex="1">
          <mxGeometry x="150" y="2020" width="200" height="52" as="geometry" />
        </mxCell>
        <mxCell id="140547733262208" value="Конец" style="ellipse;whiteSpace=wrap;rounded=0;dashed=0;inherit=default;" parent="1" vertex="1">
          <mxGeometry x="150" y="2112" width="200" height="40" as="geometry" />
        </mxCell>
        <mxCell id="6oQD1y4ohWC1IZRHn7C7-140547733272541" style="edgeStyle=orthogonalEdgeStyle;rounded=0;orthogonalLoop=1;jettySize=auto;html=1;" edge="1" parent="1" source="140547733262592">
          <mxGeometry relative="1" as="geometry">
            <mxPoint x="720" y="2000" as="targetPoint" />
            <Array as="points">
              <mxPoint x="960" y="2000" />
            </Array>
          </mxGeometry>
        </mxCell>
        <mxCell id="140547733262592" value="Вывод&#xa;&quot;Выход из программы&quot;" style="whiteSpace=wrap;rounded=0;dashed=0;inherit=default;shape=parallelogram;perimeter=rectanglePerimeter;fixedSize=1;spacingLeft=15;spacingRight=15;" parent="1" vertex="1">
          <mxGeometry x="860" y="1020" width="200" height="55" as="geometry" />
        </mxCell>
        <mxCell id="140547733268544" style="edgeStyle=orthogonalEdgeStyle;orthogonalLoop=1;rounded=0;jettySize=auto;" parent="1" source="140547733253120" target="140547733253264" edge="1">
          <mxGeometry relative="1" as="geometry">
            <Array as="points">
              <mxPoint x="240" y="80" />
              <mxPoint x="240" y="80" />
            </Array>
          </mxGeometry>
        </mxCell>
        <mxCell id="140547733269120" style="edgeStyle=orthogonalEdgeStyle;orthogonalLoop=1;rounded=0;jettySize=auto;" parent="1" source="140547733248464" target="140547733251632" edge="1">
          <mxGeometry relative="1" as="geometry">
            <Array as="points">
              <mxPoint x="240" y="431.5" />
              <mxPoint x="240" y="431.5" />
            </Array>
          </mxGeometry>
        </mxCell>
        <mxCell id="140547733270272" value="Нет" style="edgeStyle=orthogonalEdgeStyle;orthogonalLoop=1;rounded=0;jettySize=auto;entryX=0.5;entryY=0;entryDx=0;entryDy=0;" parent="1" target="140547733260432" edge="1">
          <mxGeometry x="-0.9037" y="10" relative="1" as="geometry">
            <Array as="points">
              <mxPoint x="480" y="640" />
            </Array>
            <mxPoint x="340" y="640" as="sourcePoint" />
            <mxPoint x="580" y="660" as="targetPoint" />
            <mxPoint as="offset" />
          </mxGeometry>
        </mxCell>
        <mxCell id="140547733270416" value="Да" style="edgeStyle=orthogonalEdgeStyle;orthogonalLoop=1;rounded=0;jettySize=auto;" parent="1" source="140547733262064" edge="1">
          <mxGeometry x="-1" y="25" relative="1" as="geometry">
            <Array as="points">
              <mxPoint x="240" y="700" />
              <mxPoint x="240" y="700" />
            </Array>
            <mxPoint x="240" y="719.9999999999998" as="targetPoint" />
          </mxGeometry>
        </mxCell>
        <mxCell id="140547733270704" value="Нет" style="edgeStyle=orthogonalEdgeStyle;orthogonalLoop=1;rounded=0;jettySize=auto;" parent="1" source="140547733260432" target="140547733261680" edge="1">
          <mxGeometry x="-0.9" y="10" relative="1" as="geometry">
            <Array as="points">
              <mxPoint x="720" y="740" />
            </Array>
            <mxPoint as="offset" />
          </mxGeometry>
        </mxCell>
        <mxCell id="140547733270848" value="Да" style="edgeStyle=orthogonalEdgeStyle;orthogonalLoop=1;rounded=0;jettySize=auto;" parent="1" source="140547733260432" edge="1">
          <mxGeometry x="-1" y="25" relative="1" as="geometry">
            <Array as="points">
              <mxPoint x="480" y="800" />
              <mxPoint x="480" y="800" />
            </Array>
            <mxPoint x="480" y="820" as="targetPoint" />
          </mxGeometry>
        </mxCell>
        <mxCell id="140547733270992" style="edgeStyle=orthogonalEdgeStyle;orthogonalLoop=1;rounded=0;jettySize=auto;" parent="1" source="140547733258704" target="140547733262208" edge="1">
          <mxGeometry relative="1" as="geometry">
            <Array as="points">
              <mxPoint x="250" y="2092" />
              <mxPoint x="250" y="2092" />
            </Array>
          </mxGeometry>
        </mxCell>
        <mxCell id="140547733271280" value="Нет" style="edgeStyle=orthogonalEdgeStyle;orthogonalLoop=1;rounded=0;jettySize=auto;" parent="1" source="140547733261680" target="140547733263360" edge="1">
          <mxGeometry x="-0.9" y="10" relative="1" as="geometry">
            <Array as="points">
              <mxPoint x="960" y="840" />
            </Array>
            <mxPoint as="offset" />
          </mxGeometry>
        </mxCell>
        <mxCell id="140547733271424" value="Да" style="edgeStyle=orthogonalEdgeStyle;orthogonalLoop=1;rounded=0;jettySize=auto;" parent="1" source="140547733261680" edge="1">
          <mxGeometry x="-1" y="25" relative="1" as="geometry">
            <Array as="points">
              <mxPoint x="720" y="900" />
              <mxPoint x="720" y="900" />
            </Array>
            <mxPoint x="720" y="920" as="targetPoint" />
          </mxGeometry>
        </mxCell>
        <mxCell id="140547733271856" value="Нет" style="edgeStyle=orthogonalEdgeStyle;orthogonalLoop=1;rounded=0;jettySize=auto;exitX=1;exitY=0.5;exitDx=0;exitDy=0;entryX=0.5;entryY=0;entryDx=0;entryDy=0;" parent="1" source="140547733263360" target="140547733265136" edge="1">
          <mxGeometry x="-0.9091" y="10" relative="1" as="geometry">
            <Array as="points">
              <mxPoint x="1200" y="940" />
            </Array>
            <mxPoint x="1070.0000000000002" y="930.0000000000002" as="sourcePoint" />
            <mxPoint x="1310.0000000000002" y="969.9999999999998" as="targetPoint" />
            <mxPoint as="offset" />
          </mxGeometry>
        </mxCell>
        <mxCell id="140547733272000" value="Да" style="edgeStyle=orthogonalEdgeStyle;orthogonalLoop=1;rounded=0;jettySize=auto;" parent="1" source="140547733263360" target="140547733262592" edge="1">
          <mxGeometry x="-1" y="25" relative="1" as="geometry">
            <Array as="points">
              <mxPoint x="960" y="1000" />
              <mxPoint x="960" y="1000" />
            </Array>
          </mxGeometry>
        </mxCell>
        <mxCell id="T17hy9aiYWxmpJPHIyj9-140547733272480" value="Вывод&#xa;&quot;Введите число:&quot;" style="whiteSpace=wrap;rounded=0;dashed=0;inherit=default;shape=parallelogram;perimeter=rectanglePerimeter;fixedSize=1;spacingLeft=15;spacingRight=15;" parent="1" vertex="1">
          <mxGeometry x="140" y="700" width="200" height="55" as="geometry" />
        </mxCell>
        <mxCell id="6oQD1y4ohWC1IZRHn7C7-140547733272482" style="edgeStyle=orthogonalEdgeStyle;rounded=0;orthogonalLoop=1;jettySize=auto;html=1;entryX=0.5;entryY=0;entryDx=0;entryDy=0;" edge="1" parent="1" source="T17hy9aiYWxmpJPHIyj9-140547733272482" target="6oQD1y4ohWC1IZRHn7C7-140547733272481">
          <mxGeometry relative="1" as="geometry" />
        </mxCell>
        <mxCell id="T17hy9aiYWxmpJPHIyj9-140547733272482" value="Ввод number" style="whiteSpace=wrap;rounded=0;dashed=0;inherit=default;shape=parallelogram;perimeter=rectanglePerimeter;fixedSize=1;spacingLeft=15;spacingRight=15;" parent="1" vertex="1">
          <mxGeometry x="140" y="780" width="200" height="40" as="geometry" />
        </mxCell>
        <mxCell id="T17hy9aiYWxmpJPHIyj9-140547733272490" style="edgeStyle=orthogonalEdgeStyle;orthogonalLoop=1;rounded=0;jettySize=auto;" parent="1" source="T17hy9aiYWxmpJPHIyj9-140547733272480" target="T17hy9aiYWxmpJPHIyj9-140547733272482" edge="1">
          <mxGeometry relative="1" as="geometry">
            <Array as="points">
              <mxPoint x="240" y="795" />
              <mxPoint x="240" y="795" />
            </Array>
          </mxGeometry>
        </mxCell>
        <mxCell id="6oQD1y4ohWC1IZRHn7C7-140547733272540" style="edgeStyle=orthogonalEdgeStyle;rounded=0;orthogonalLoop=1;jettySize=auto;html=1;" edge="1" parent="1" source="6oQD1y4ohWC1IZRHn7C7-140547733272481">
          <mxGeometry relative="1" as="geometry">
            <mxPoint x="250" y="1990" as="targetPoint" />
          </mxGeometry>
        </mxCell>
        <mxCell id="6oQD1y4ohWC1IZRHn7C7-140547733272481" value="Вывод&#xa;&quot;Число задано :&quot; number" style="whiteSpace=wrap;rounded=0;dashed=0;inherit=default;shape=parallelogram;perimeter=rectanglePerimeter;fixedSize=1;spacingLeft=15;spacingRight=15;" vertex="1" parent="1">
          <mxGeometry x="140" y="850" width="200" height="40" as="geometry" />
        </mxCell>
        <mxCell id="6oQD1y4ohWC1IZRHn7C7-140547733272489" style="edgeStyle=orthogonalEdgeStyle;rounded=0;orthogonalLoop=1;jettySize=auto;html=1;" edge="1" parent="1" source="6oQD1y4ohWC1IZRHn7C7-140547733272484">
          <mxGeometry relative="1" as="geometry">
            <mxPoint x="480" y="1990" as="targetPoint" />
          </mxGeometry>
        </mxCell>
        <mxCell id="6oQD1y4ohWC1IZRHn7C7-140547733272484" value="Вывод&#xa;&quot;Максимальный делитель задан:&quot; max_divisor" style="whiteSpace=wrap;rounded=0;dashed=0;inherit=default;shape=parallelogram;perimeter=rectanglePerimeter;fixedSize=1;spacingLeft=15;spacingRight=15;" vertex="1" parent="1">
          <mxGeometry x="380" y="890" width="200" height="55" as="geometry" />
        </mxCell>
        <mxCell id="6oQD1y4ohWC1IZRHn7C7-140547733272488" style="edgeStyle=orthogonalEdgeStyle;rounded=0;orthogonalLoop=1;jettySize=auto;html=1;entryX=0.5;entryY=0;entryDx=0;entryDy=0;" edge="1" parent="1" source="6oQD1y4ohWC1IZRHn7C7-140547733272485" target="6oQD1y4ohWC1IZRHn7C7-140547733272484">
          <mxGeometry relative="1" as="geometry" />
        </mxCell>
        <mxCell id="6oQD1y4ohWC1IZRHn7C7-140547733272485" value="Ввод max_divisor" style="whiteSpace=wrap;rounded=0;dashed=0;inherit=default;shape=parallelogram;perimeter=rectanglePerimeter;fixedSize=1;spacingLeft=15;spacingRight=15;" vertex="1" parent="1">
          <mxGeometry x="380" y="820" width="200" height="40" as="geometry" />
        </mxCell>
        <mxCell id="6oQD1y4ohWC1IZRHn7C7-140547733272535" style="edgeStyle=orthogonalEdgeStyle;rounded=0;orthogonalLoop=1;jettySize=auto;html=1;entryX=0.5;entryY=0;entryDx=0;entryDy=0;" edge="1" parent="1" source="6oQD1y4ohWC1IZRHn7C7-140547733272490" target="6oQD1y4ohWC1IZRHn7C7-140547733272493">
          <mxGeometry relative="1" as="geometry" />
        </mxCell>
        <mxCell id="6oQD1y4ohWC1IZRHn7C7-140547733272538" style="edgeStyle=orthogonalEdgeStyle;rounded=0;orthogonalLoop=1;jettySize=auto;html=1;exitX=1;exitY=0.5;exitDx=0;exitDy=0;" edge="1" parent="1" source="6oQD1y4ohWC1IZRHn7C7-140547733272490">
          <mxGeometry relative="1" as="geometry">
            <mxPoint x="720" y="1110" as="targetPoint" />
            <Array as="points">
              <mxPoint x="840" y="960" />
              <mxPoint x="840" y="1110" />
            </Array>
          </mxGeometry>
        </mxCell>
        <mxCell id="6oQD1y4ohWC1IZRHn7C7-140547733272490" value="number = -1&#xa;or&#xa;max_divisor = -1" style="rhombus;whiteSpace=wrap;rounded=0;dashed=0;inherit=default;" vertex="1" parent="1">
          <mxGeometry x="620" y="920" width="200" height="80" as="geometry" />
        </mxCell>
        <mxCell id="6oQD1y4ohWC1IZRHn7C7-140547733272533" style="edgeStyle=orthogonalEdgeStyle;rounded=0;orthogonalLoop=1;jettySize=auto;html=1;" edge="1" parent="1" source="6oQD1y4ohWC1IZRHn7C7-140547733272493" target="6oQD1y4ohWC1IZRHn7C7-140547733272495">
          <mxGeometry relative="1" as="geometry" />
        </mxCell>
        <mxCell id="6oQD1y4ohWC1IZRHn7C7-140547733272493" value="Вывод&#xa;&quot;Ошибка: необходимо сначала установить число и максимальный делитель.&quot;" style="whiteSpace=wrap;rounded=0;dashed=0;inherit=default;shape=parallelogram;perimeter=rectanglePerimeter;fixedSize=1;spacingLeft=15;spacingRight=15;" vertex="1" parent="1">
          <mxGeometry x="620" y="1040" width="200" height="55" as="geometry" />
        </mxCell>
        <mxCell id="6oQD1y4ohWC1IZRHn7C7-140547733272512" style="edgeStyle=orthogonalEdgeStyle;rounded=0;orthogonalLoop=1;jettySize=auto;html=1;entryX=0.5;entryY=0;entryDx=0;entryDy=0;" edge="1" parent="1" source="6oQD1y4ohWC1IZRHn7C7-140547733272494" target="6oQD1y4ohWC1IZRHn7C7-140547733272497">
          <mxGeometry relative="1" as="geometry" />
        </mxCell>
        <mxCell id="6oQD1y4ohWC1IZRHn7C7-140547733272494" value="Цикл 2&#xa;i &lt; max_divisor" style="whiteSpace=wrap;rounded=0;dashed=0;verticalLabelPosition=bottom;verticalAlign=top;shape=offPageConnector;size=0.5;direction=west;spacingTop=-50.05;" vertex="1" parent="1">
          <mxGeometry x="620" y="1170" width="200" height="60" as="geometry" />
        </mxCell>
        <mxCell id="6oQD1y4ohWC1IZRHn7C7-140547733272534" style="edgeStyle=orthogonalEdgeStyle;rounded=0;orthogonalLoop=1;jettySize=auto;html=1;entryX=0.5;entryY=1;entryDx=0;entryDy=0;" edge="1" parent="1" source="6oQD1y4ohWC1IZRHn7C7-140547733272495" target="6oQD1y4ohWC1IZRHn7C7-140547733272494">
          <mxGeometry relative="1" as="geometry" />
        </mxCell>
        <mxCell id="6oQD1y4ohWC1IZRHn7C7-140547733272495" value="i := 1&#xa;count := 0" style="whiteSpace=wrap;rounded=0;dashed=0;inherit=default;" vertex="1" parent="1">
          <mxGeometry x="620" y="1120" width="200" height="40" as="geometry" />
        </mxCell>
        <mxCell id="6oQD1y4ohWC1IZRHn7C7-140547733272511" style="edgeStyle=orthogonalEdgeStyle;rounded=0;orthogonalLoop=1;jettySize=auto;html=1;entryX=0.5;entryY=0;entryDx=0;entryDy=0;" edge="1" parent="1" source="6oQD1y4ohWC1IZRHn7C7-140547733272497" target="6oQD1y4ohWC1IZRHn7C7-140547733272509">
          <mxGeometry relative="1" as="geometry" />
        </mxCell>
        <mxCell id="6oQD1y4ohWC1IZRHn7C7-140547733272517" style="edgeStyle=orthogonalEdgeStyle;rounded=0;orthogonalLoop=1;jettySize=auto;html=1;" edge="1" parent="1" source="6oQD1y4ohWC1IZRHn7C7-140547733272497">
          <mxGeometry relative="1" as="geometry">
            <mxPoint x="720" y="1390" as="targetPoint" />
            <Array as="points">
              <mxPoint x="860" y="1285" />
              <mxPoint x="860" y="1390" />
            </Array>
          </mxGeometry>
        </mxCell>
        <mxCell id="6oQD1y4ohWC1IZRHn7C7-140547733272497" value="number // i = 0" style="rhombus;whiteSpace=wrap;rounded=0;dashed=0;inherit=default;" vertex="1" parent="1">
          <mxGeometry x="620" y="1260" width="200" height="50" as="geometry" />
        </mxCell>
        <mxCell id="6oQD1y4ohWC1IZRHn7C7-140547733272503" value="Да" style="text;html=1;align=center;verticalAlign=middle;whiteSpace=wrap;rounded=0;" vertex="1" parent="1">
          <mxGeometry x="720" y="1300" width="40" height="20" as="geometry" />
        </mxCell>
        <mxCell id="6oQD1y4ohWC1IZRHn7C7-140547733272505" value="Нет" style="text;html=1;align=center;verticalAlign=middle;whiteSpace=wrap;rounded=0;" vertex="1" parent="1">
          <mxGeometry x="790" y="1260" width="40" height="20" as="geometry" />
        </mxCell>
        <mxCell id="6oQD1y4ohWC1IZRHn7C7-140547733272516" style="edgeStyle=orthogonalEdgeStyle;rounded=0;orthogonalLoop=1;jettySize=auto;html=1;" edge="1" parent="1" source="6oQD1y4ohWC1IZRHn7C7-140547733272509">
          <mxGeometry relative="1" as="geometry">
            <mxPoint x="720" y="1400" as="targetPoint" />
          </mxGeometry>
        </mxCell>
        <mxCell id="6oQD1y4ohWC1IZRHn7C7-140547733272509" value="count := count + 1&#xa;divisors[count - 1] := i" style="whiteSpace=wrap;rounded=0;dashed=0;inherit=default;" vertex="1" parent="1">
          <mxGeometry x="620" y="1330" width="200" height="40" as="geometry" />
        </mxCell>
        <mxCell id="6oQD1y4ohWC1IZRHn7C7-140547733272528" style="edgeStyle=orthogonalEdgeStyle;rounded=0;orthogonalLoop=1;jettySize=auto;html=1;" edge="1" parent="1" source="6oQD1y4ohWC1IZRHn7C7-140547733272513" target="6oQD1y4ohWC1IZRHn7C7-140547733272519">
          <mxGeometry relative="1" as="geometry" />
        </mxCell>
        <mxCell id="6oQD1y4ohWC1IZRHn7C7-140547733272513" value="Вывод&#xa;&#39;Количество делителей: &#39; count&#xa;&#39;Список делителей: &#39;" style="whiteSpace=wrap;rounded=0;dashed=0;inherit=default;shape=parallelogram;perimeter=rectanglePerimeter;fixedSize=1;spacingLeft=15;spacingRight=15;" vertex="1" parent="1">
          <mxGeometry x="620" y="1402" width="200" height="55" as="geometry" />
        </mxCell>
        <mxCell id="6oQD1y4ohWC1IZRHn7C7-140547733272522" style="edgeStyle=orthogonalEdgeStyle;rounded=0;orthogonalLoop=1;jettySize=auto;html=1;" edge="1" parent="1" source="6oQD1y4ohWC1IZRHn7C7-140547733272518" target="6oQD1y4ohWC1IZRHn7C7-140547733272520">
          <mxGeometry relative="1" as="geometry" />
        </mxCell>
        <mxCell id="6oQD1y4ohWC1IZRHn7C7-140547733272518" value="Цикл 3&#xa;k &lt; count - 1" style="whiteSpace=wrap;rounded=0;dashed=0;verticalLabelPosition=bottom;verticalAlign=top;shape=offPageConnector;size=0.5;direction=west;spacingTop=-50.05;" vertex="1" parent="1">
          <mxGeometry x="620" y="1540" width="200" height="60" as="geometry" />
        </mxCell>
        <mxCell id="6oQD1y4ohWC1IZRHn7C7-140547733272521" style="edgeStyle=orthogonalEdgeStyle;rounded=0;orthogonalLoop=1;jettySize=auto;html=1;" edge="1" parent="1" source="6oQD1y4ohWC1IZRHn7C7-140547733272519" target="6oQD1y4ohWC1IZRHn7C7-140547733272518">
          <mxGeometry relative="1" as="geometry" />
        </mxCell>
        <mxCell id="6oQD1y4ohWC1IZRHn7C7-140547733272519" value="k := 0" style="whiteSpace=wrap;rounded=0;dashed=0;inherit=default;" vertex="1" parent="1">
          <mxGeometry x="620" y="1480" width="200" height="40" as="geometry" />
        </mxCell>
        <mxCell id="6oQD1y4ohWC1IZRHn7C7-140547733272526" style="edgeStyle=orthogonalEdgeStyle;rounded=0;orthogonalLoop=1;jettySize=auto;html=1;entryX=0.5;entryY=0;entryDx=0;entryDy=0;" edge="1" parent="1" source="6oQD1y4ohWC1IZRHn7C7-140547733272520" target="6oQD1y4ohWC1IZRHn7C7-140547733272523">
          <mxGeometry relative="1" as="geometry" />
        </mxCell>
        <mxCell id="6oQD1y4ohWC1IZRHn7C7-140547733272520" value="Вывод&#xa;number &#39;/&#39; divisors[i] &#39; = &#39; number // divisors[i]" style="whiteSpace=wrap;rounded=0;dashed=0;inherit=default;shape=parallelogram;perimeter=rectanglePerimeter;fixedSize=1;spacingLeft=15;spacingRight=15;" vertex="1" parent="1">
          <mxGeometry x="620" y="1623" width="200" height="55" as="geometry" />
        </mxCell>
        <mxCell id="6oQD1y4ohWC1IZRHn7C7-140547733272527" style="edgeStyle=orthogonalEdgeStyle;rounded=0;orthogonalLoop=1;jettySize=auto;html=1;entryX=0.5;entryY=0;entryDx=0;entryDy=0;" edge="1" parent="1" source="6oQD1y4ohWC1IZRHn7C7-140547733272523" target="6oQD1y4ohWC1IZRHn7C7-140547733272524">
          <mxGeometry relative="1" as="geometry" />
        </mxCell>
        <mxCell id="6oQD1y4ohWC1IZRHn7C7-140547733272523" value="k := k + 1" style="whiteSpace=wrap;rounded=0;dashed=0;inherit=default;" vertex="1" parent="1">
          <mxGeometry x="620" y="1700" width="200" height="40" as="geometry" />
        </mxCell>
        <mxCell id="6oQD1y4ohWC1IZRHn7C7-140547733272531" style="edgeStyle=orthogonalEdgeStyle;rounded=0;orthogonalLoop=1;jettySize=auto;html=1;entryX=0.5;entryY=0;entryDx=0;entryDy=0;" edge="1" parent="1" source="6oQD1y4ohWC1IZRHn7C7-140547733272524" target="6oQD1y4ohWC1IZRHn7C7-140547733272530">
          <mxGeometry relative="1" as="geometry" />
        </mxCell>
        <mxCell id="6oQD1y4ohWC1IZRHn7C7-140547733272524" value="Цикл 3" style="whiteSpace=wrap;rounded=0;dashed=0;verticalLabelPosition=bottom;verticalAlign=top;shape=offPageConnector;size=0.5;direction=east;spacingTop=-50.05;" vertex="1" parent="1">
          <mxGeometry x="620" y="1760" width="200" height="60" as="geometry" />
        </mxCell>
        <mxCell id="6oQD1y4ohWC1IZRHn7C7-140547733272539" style="edgeStyle=orthogonalEdgeStyle;rounded=0;orthogonalLoop=1;jettySize=auto;html=1;entryX=0.5;entryY=0;entryDx=0;entryDy=0;exitX=0.5;exitY=1;exitDx=0;exitDy=0;" edge="1" parent="1" source="6oQD1y4ohWC1IZRHn7C7-140547733272529" target="140547733258704">
          <mxGeometry relative="1" as="geometry" />
        </mxCell>
        <mxCell id="6oQD1y4ohWC1IZRHn7C7-140547733272529" value="Цикл 2" style="whiteSpace=wrap;rounded=0;dashed=0;verticalLabelPosition=bottom;verticalAlign=top;shape=offPageConnector;size=0.5;direction=east;spacingTop=-50.05;" vertex="1" parent="1">
          <mxGeometry x="620" y="1910" width="200" height="60" as="geometry" />
        </mxCell>
        <mxCell id="6oQD1y4ohWC1IZRHn7C7-140547733272532" style="edgeStyle=orthogonalEdgeStyle;rounded=0;orthogonalLoop=1;jettySize=auto;html=1;entryX=0.5;entryY=0;entryDx=0;entryDy=0;" edge="1" parent="1" source="6oQD1y4ohWC1IZRHn7C7-140547733272530" target="6oQD1y4ohWC1IZRHn7C7-140547733272529">
          <mxGeometry relative="1" as="geometry" />
        </mxCell>
        <mxCell id="6oQD1y4ohWC1IZRHn7C7-140547733272530" value="i := i + 1" style="whiteSpace=wrap;rounded=0;dashed=0;inherit=default;" vertex="1" parent="1">
          <mxGeometry x="620" y="1840" width="200" height="40" as="geometry" />
        </mxCell>
        <mxCell id="6oQD1y4ohWC1IZRHn7C7-140547733272536" value="Да" style="text;html=1;align=center;verticalAlign=middle;whiteSpace=wrap;rounded=0;" vertex="1" parent="1">
          <mxGeometry x="710" y="1000" width="40" height="20" as="geometry" />
        </mxCell>
        <mxCell id="6oQD1y4ohWC1IZRHn7C7-140547733272537" value="Нет" style="text;html=1;align=center;verticalAlign=middle;whiteSpace=wrap;rounded=0;" vertex="1" parent="1">
          <mxGeometry x="800" y="940" width="40" height="20" as="geometry" />
        </mxCell>
      </root>
    </mxGraphModel>
  </diagram>
</mxfile>
